<mxfile host="app.diagrams.net" modified="2023-06-28T00:41:19.592Z" agent="Mozilla/5.0 (Windows NT 10.0; Win64; x64) AppleWebKit/537.36 (KHTML, like Gecko) Chrome/114.0.0.0 Safari/537.36" etag="c6Uv-8XHuY6a5fSpgLuR" version="21.5.1" type="github">
  <diagram id="C5RBs43oDa-KdzZeNtuy" name="Page-1">
    <mxGraphModel dx="1173" dy="603" grid="1" gridSize="10" guides="1" tooltips="1" connect="1" arrows="1" fold="1" page="1" pageScale="1" pageWidth="827" pageHeight="1169" math="0" shadow="0">
      <root>
        <mxCell id="WIyWlLk6GJQsqaUBKTNV-0" />
        <mxCell id="WIyWlLk6GJQsqaUBKTNV-1" parent="WIyWlLk6GJQsqaUBKTNV-0" />
        <mxCell id="kGngIsynrIS44JJX8Pnr-17" style="edgeStyle=orthogonalEdgeStyle;rounded=0;orthogonalLoop=1;jettySize=auto;html=1;exitX=1;exitY=1;exitDx=0;exitDy=0;entryX=0;entryY=0.5;entryDx=0;entryDy=0;" edge="1" parent="WIyWlLk6GJQsqaUBKTNV-1" source="kGngIsynrIS44JJX8Pnr-0" target="kGngIsynrIS44JJX8Pnr-10">
          <mxGeometry relative="1" as="geometry">
            <Array as="points">
              <mxPoint x="150" y="240" />
              <mxPoint x="150" y="325" />
            </Array>
          </mxGeometry>
        </mxCell>
        <mxCell id="kGngIsynrIS44JJX8Pnr-0" value="&lt;font face=&quot;Verdana&quot;&gt;&lt;span style=&quot;font-size: 14px;&quot;&gt;Pessoa&lt;/span&gt;&lt;/font&gt;" style="rounded=0;whiteSpace=wrap;html=1;fillColor=#008a00;fontColor=#ffffff;strokeColor=#005700;" vertex="1" parent="WIyWlLk6GJQsqaUBKTNV-1">
          <mxGeometry x="80" y="200" width="130" height="40" as="geometry" />
        </mxCell>
        <mxCell id="kGngIsynrIS44JJX8Pnr-13" style="edgeStyle=orthogonalEdgeStyle;rounded=0;orthogonalLoop=1;jettySize=auto;html=1;exitX=0.5;exitY=1;exitDx=0;exitDy=0;entryX=0.5;entryY=0;entryDx=0;entryDy=0;" edge="1" parent="WIyWlLk6GJQsqaUBKTNV-1" source="kGngIsynrIS44JJX8Pnr-5" target="kGngIsynrIS44JJX8Pnr-10">
          <mxGeometry relative="1" as="geometry">
            <Array as="points">
              <mxPoint x="630" y="140" />
              <mxPoint x="395" y="140" />
            </Array>
          </mxGeometry>
        </mxCell>
        <mxCell id="kGngIsynrIS44JJX8Pnr-5" value="&lt;font face=&quot;Verdana&quot;&gt;&lt;span style=&quot;font-size: 14px;&quot;&gt;Banco&lt;/span&gt;&lt;/font&gt;" style="rounded=0;whiteSpace=wrap;html=1;fillColor=#0050ef;fontColor=#ffffff;strokeColor=#001DBC;" vertex="1" parent="WIyWlLk6GJQsqaUBKTNV-1">
          <mxGeometry x="560" y="110" width="140" height="60" as="geometry" />
        </mxCell>
        <mxCell id="kGngIsynrIS44JJX8Pnr-12" style="edgeStyle=orthogonalEdgeStyle;rounded=0;orthogonalLoop=1;jettySize=auto;html=1;entryX=1;entryY=0.5;entryDx=0;entryDy=0;" edge="1" parent="WIyWlLk6GJQsqaUBKTNV-1" source="kGngIsynrIS44JJX8Pnr-6" target="kGngIsynrIS44JJX8Pnr-10">
          <mxGeometry relative="1" as="geometry">
            <Array as="points">
              <mxPoint x="650" y="325" />
            </Array>
          </mxGeometry>
        </mxCell>
        <mxCell id="kGngIsynrIS44JJX8Pnr-6" value="&lt;font face=&quot;Verdana&quot;&gt;&lt;span style=&quot;font-size: 14px;&quot;&gt;Company&lt;/span&gt;&lt;/font&gt;" style="rounded=0;whiteSpace=wrap;html=1;fillColor=#a20025;fontColor=#ffffff;strokeColor=#6F0000;" vertex="1" parent="WIyWlLk6GJQsqaUBKTNV-1">
          <mxGeometry x="570" y="310" width="150" height="40" as="geometry" />
        </mxCell>
        <mxCell id="kGngIsynrIS44JJX8Pnr-16" style="edgeStyle=orthogonalEdgeStyle;rounded=0;orthogonalLoop=1;jettySize=auto;html=1;exitX=1;exitY=1;exitDx=0;exitDy=0;entryX=0.5;entryY=0;entryDx=0;entryDy=0;" edge="1" parent="WIyWlLk6GJQsqaUBKTNV-1" source="kGngIsynrIS44JJX8Pnr-10" target="kGngIsynrIS44JJX8Pnr-15">
          <mxGeometry relative="1" as="geometry">
            <Array as="points">
              <mxPoint x="395" y="343" />
            </Array>
          </mxGeometry>
        </mxCell>
        <mxCell id="kGngIsynrIS44JJX8Pnr-10" value="U" style="ellipse;whiteSpace=wrap;html=1;aspect=fixed;" vertex="1" parent="WIyWlLk6GJQsqaUBKTNV-1">
          <mxGeometry x="370" y="300" width="50" height="50" as="geometry" />
        </mxCell>
        <mxCell id="kGngIsynrIS44JJX8Pnr-15" value="Owner" style="rounded=0;whiteSpace=wrap;html=1;fillColor=#6a00ff;fontColor=#ffffff;strokeColor=#3700CC;" vertex="1" parent="WIyWlLk6GJQsqaUBKTNV-1">
          <mxGeometry x="335" y="500" width="120" height="60" as="geometry" />
        </mxCell>
        <mxCell id="kGngIsynrIS44JJX8Pnr-23" style="edgeStyle=orthogonalEdgeStyle;rounded=0;orthogonalLoop=1;jettySize=auto;html=1;exitX=1;exitY=1;exitDx=0;exitDy=0;entryX=0;entryY=0;entryDx=0;entryDy=0;" edge="1" parent="WIyWlLk6GJQsqaUBKTNV-1" source="kGngIsynrIS44JJX8Pnr-18" target="kGngIsynrIS44JJX8Pnr-0">
          <mxGeometry relative="1" as="geometry" />
        </mxCell>
        <mxCell id="kGngIsynrIS44JJX8Pnr-18" value="Licença" style="ellipse;whiteSpace=wrap;html=1;fillColor=#008a00;fontColor=#ffffff;strokeColor=#005700;" vertex="1" parent="WIyWlLk6GJQsqaUBKTNV-1">
          <mxGeometry y="120" width="70" height="40" as="geometry" />
        </mxCell>
        <mxCell id="kGngIsynrIS44JJX8Pnr-22" style="edgeStyle=orthogonalEdgeStyle;rounded=0;orthogonalLoop=1;jettySize=auto;html=1;exitX=0.5;exitY=1;exitDx=0;exitDy=0;entryX=0.587;entryY=-0.008;entryDx=0;entryDy=0;entryPerimeter=0;" edge="1" parent="WIyWlLk6GJQsqaUBKTNV-1" source="kGngIsynrIS44JJX8Pnr-19" target="kGngIsynrIS44JJX8Pnr-0">
          <mxGeometry relative="1" as="geometry" />
        </mxCell>
        <mxCell id="kGngIsynrIS44JJX8Pnr-19" value="CPF" style="ellipse;whiteSpace=wrap;html=1;fillColor=#008a00;fontColor=#ffffff;strokeColor=#005700;" vertex="1" parent="WIyWlLk6GJQsqaUBKTNV-1">
          <mxGeometry x="60" y="50" width="80" height="40" as="geometry" />
        </mxCell>
        <mxCell id="kGngIsynrIS44JJX8Pnr-24" style="edgeStyle=orthogonalEdgeStyle;rounded=0;orthogonalLoop=1;jettySize=auto;html=1;exitX=0.5;exitY=1;exitDx=0;exitDy=0;entryX=0.75;entryY=0;entryDx=0;entryDy=0;" edge="1" parent="WIyWlLk6GJQsqaUBKTNV-1" source="kGngIsynrIS44JJX8Pnr-20" target="kGngIsynrIS44JJX8Pnr-0">
          <mxGeometry relative="1" as="geometry" />
        </mxCell>
        <mxCell id="kGngIsynrIS44JJX8Pnr-20" value="Nome" style="ellipse;whiteSpace=wrap;html=1;fillColor=#008a00;fontColor=#ffffff;strokeColor=#005700;" vertex="1" parent="WIyWlLk6GJQsqaUBKTNV-1">
          <mxGeometry x="170" y="50" width="80" height="40" as="geometry" />
        </mxCell>
        <mxCell id="kGngIsynrIS44JJX8Pnr-25" style="edgeStyle=orthogonalEdgeStyle;rounded=0;orthogonalLoop=1;jettySize=auto;html=1;exitX=0.5;exitY=1;exitDx=0;exitDy=0;entryX=1;entryY=0;entryDx=0;entryDy=0;" edge="1" parent="WIyWlLk6GJQsqaUBKTNV-1" source="kGngIsynrIS44JJX8Pnr-21" target="kGngIsynrIS44JJX8Pnr-0">
          <mxGeometry relative="1" as="geometry" />
        </mxCell>
        <mxCell id="kGngIsynrIS44JJX8Pnr-21" value="Endereço" style="ellipse;whiteSpace=wrap;html=1;fillColor=#008a00;fontColor=#ffffff;strokeColor=#005700;" vertex="1" parent="WIyWlLk6GJQsqaUBKTNV-1">
          <mxGeometry x="240" y="100" width="95" height="40" as="geometry" />
        </mxCell>
        <mxCell id="kGngIsynrIS44JJX8Pnr-28" style="edgeStyle=orthogonalEdgeStyle;rounded=0;orthogonalLoop=1;jettySize=auto;html=1;exitX=1;exitY=1;exitDx=0;exitDy=0;entryX=0.345;entryY=0.006;entryDx=0;entryDy=0;entryPerimeter=0;" edge="1" parent="WIyWlLk6GJQsqaUBKTNV-1" source="kGngIsynrIS44JJX8Pnr-26" target="kGngIsynrIS44JJX8Pnr-5">
          <mxGeometry relative="1" as="geometry">
            <Array as="points">
              <mxPoint x="486" y="60" />
              <mxPoint x="608" y="60" />
            </Array>
          </mxGeometry>
        </mxCell>
        <mxCell id="kGngIsynrIS44JJX8Pnr-26" value="Bnome" style="ellipse;whiteSpace=wrap;html=1;fillColor=#0050ef;fontColor=#ffffff;strokeColor=#001DBC;" vertex="1" parent="WIyWlLk6GJQsqaUBKTNV-1">
          <mxGeometry x="455" y="30" width="100" height="50" as="geometry" />
        </mxCell>
        <mxCell id="kGngIsynrIS44JJX8Pnr-30" style="edgeStyle=orthogonalEdgeStyle;rounded=0;orthogonalLoop=1;jettySize=auto;html=1;exitX=0.5;exitY=1;exitDx=0;exitDy=0;entryX=1;entryY=0.5;entryDx=0;entryDy=0;" edge="1" parent="WIyWlLk6GJQsqaUBKTNV-1" source="kGngIsynrIS44JJX8Pnr-27" target="kGngIsynrIS44JJX8Pnr-5">
          <mxGeometry relative="1" as="geometry" />
        </mxCell>
        <mxCell id="kGngIsynrIS44JJX8Pnr-27" value="Bendereço" style="ellipse;whiteSpace=wrap;html=1;fillColor=#0050ef;fontColor=#ffffff;strokeColor=#001DBC;" vertex="1" parent="WIyWlLk6GJQsqaUBKTNV-1">
          <mxGeometry x="685" y="40" width="100" height="50" as="geometry" />
        </mxCell>
        <mxCell id="kGngIsynrIS44JJX8Pnr-34" style="edgeStyle=orthogonalEdgeStyle;rounded=0;orthogonalLoop=1;jettySize=auto;html=1;exitX=0.5;exitY=0;exitDx=0;exitDy=0;entryX=1;entryY=0.5;entryDx=0;entryDy=0;" edge="1" parent="WIyWlLk6GJQsqaUBKTNV-1" source="kGngIsynrIS44JJX8Pnr-31" target="kGngIsynrIS44JJX8Pnr-6">
          <mxGeometry relative="1" as="geometry">
            <Array as="points">
              <mxPoint x="750" y="290" />
              <mxPoint x="740" y="290" />
              <mxPoint x="740" y="330" />
            </Array>
          </mxGeometry>
        </mxCell>
        <mxCell id="kGngIsynrIS44JJX8Pnr-31" value="Cnome" style="ellipse;whiteSpace=wrap;html=1;fillColor=#d80073;fontColor=#ffffff;strokeColor=#A50040;" vertex="1" parent="WIyWlLk6GJQsqaUBKTNV-1">
          <mxGeometry x="700" y="230" width="110" height="50" as="geometry" />
        </mxCell>
        <mxCell id="kGngIsynrIS44JJX8Pnr-37" style="edgeStyle=orthogonalEdgeStyle;rounded=0;orthogonalLoop=1;jettySize=auto;html=1;exitX=0.5;exitY=0;exitDx=0;exitDy=0;entryX=0.5;entryY=1;entryDx=0;entryDy=0;" edge="1" parent="WIyWlLk6GJQsqaUBKTNV-1" source="kGngIsynrIS44JJX8Pnr-32" target="kGngIsynrIS44JJX8Pnr-6">
          <mxGeometry relative="1" as="geometry" />
        </mxCell>
        <mxCell id="kGngIsynrIS44JJX8Pnr-32" value="Cendereço" style="ellipse;whiteSpace=wrap;html=1;fillColor=#d80073;fontColor=#ffffff;strokeColor=#A50040;" vertex="1" parent="WIyWlLk6GJQsqaUBKTNV-1">
          <mxGeometry x="700" y="450" width="100" height="45" as="geometry" />
        </mxCell>
        <mxCell id="kGngIsynrIS44JJX8Pnr-35" style="edgeStyle=orthogonalEdgeStyle;rounded=0;orthogonalLoop=1;jettySize=auto;html=1;exitX=0.5;exitY=1;exitDx=0;exitDy=0;" edge="1" parent="WIyWlLk6GJQsqaUBKTNV-1" source="kGngIsynrIS44JJX8Pnr-32" target="kGngIsynrIS44JJX8Pnr-32">
          <mxGeometry relative="1" as="geometry" />
        </mxCell>
      </root>
    </mxGraphModel>
  </diagram>
</mxfile>
